<?xml version="1.0" encoding="UTF-8" standalone="no"?>
<!-- Created with Inkscape (http://www.inkscape.org/) -->

<svg
   xmlns:dc="http://purl.org/dc/elements/1.1/"
   xmlns:cc="http://creativecommons.org/ns#"
   xmlns:rdf="http://www.w3.org/1999/02/22-rdf-syntax-ns#"
   xmlns:svg="http://www.w3.org/2000/svg"
   xmlns="http://www.w3.org/2000/svg"
   xmlns:sodipodi="http://sodipodi.sourceforge.net/DTD/sodipodi-0.dtd"
   xmlns:inkscape="http://www.inkscape.org/namespaces/inkscape"
   width="20mm"
   height="20mm"
   viewBox="0 0 20 20"
   version="1.1"
   id="svg8"
   inkscape:version="0.92.4 (5da689c313, 2019-01-14)"
   sodipodi:docname="precession_diffraction.svg">
  <defs
     id="defs2" />
  <sodipodi:namedview
     id="base"
     pagecolor="#ffffff"
     bordercolor="#666666"
     borderopacity="1.0"
     inkscape:pageopacity="0.0"
     inkscape:pageshadow="2"
     inkscape:zoom="7.9195959"
     inkscape:cx="0.81121176"
     inkscape:cy="30.798052"
     inkscape:document-units="mm"
     inkscape:current-layer="g1058"
     showgrid="false"
     inkscape:window-width="1842"
     inkscape:window-height="1057"
     inkscape:window-x="70"
     inkscape:window-y="-8"
     inkscape:window-maximized="1"
     showguides="false" />
  <metadata
     id="metadata5">
    <rdf:RDF>
      <cc:Work
         rdf:about="">
        <dc:format>image/svg+xml</dc:format>
        <dc:type
           rdf:resource="http://purl.org/dc/dcmitype/StillImage" />
        <dc:title></dc:title>
      </cc:Work>
    </rdf:RDF>
  </metadata>
  <g
     inkscape:label="Layer 1"
     inkscape:groupmode="layer"
     id="layer1"
     transform="translate(-67.279762,-65.962051)">
    <rect
       style="fill:none;fill-opacity:1;stroke:none;stroke-width:0.2;stroke-linecap:square;stroke-linejoin:miter;stroke-miterlimit:4;stroke-dasharray:none;stroke-opacity:1"
       id="rect823"
       width="20"
       height="20"
       x="67.279762"
       y="65.962051" />
    <g
       id="g1022"
       transform="matrix(1.221241,0,0,0.99890167,-15.881834,0.08350153)">
      <g
         id="g1031"
         transform="translate(-0.30950172)">
        <g
           style="fill:#000000;stroke:none;stroke-opacity:1"
           id="g1058"
           transform="matrix(0.2166512,0,0,0.26487425,73.574864,72.22573)">
          <g
             id="g1063"
             transform="matrix(2.6257143,0,0,2.6257143,-18.056478,-17.298863)">
            <path
               style="fill:none;stroke:none;stroke-opacity:1"
               inkscape:connector-curvature="0"
               d="M 0,0 H 24 V 24 H 0 Z"
               id="path1041" />
            <circle
               style="fill:#dcdcdc;fill-opacity:1;stroke:none;stroke-opacity:1"
               cx="12"
               cy="12"
               r="3.2"
               id="circle1043" />
            <path
               style="fill:#dcdcdc;fill-opacity:1;stroke:none;stroke-opacity:1"
               inkscape:connector-curvature="0"
               d="M 9,2 7.17,4 H 4 C 2.9,4 2,4.9 2,6 v 12 c 0,1.1 0.9,2 2,2 h 16 c 1.1,0 2,-0.9 2,-2 V 6 C 22,4.9 21.1,4 20,4 H 16.83 L 15,2 Z m 3,15 C 9.24,17 7,14.76 7,12 7,9.24 9.24,7 12,7 c 2.76,0 5,2.24 5,5 0,2.76 -2.24,5 -5,5 z"
               id="path1045" />
          </g>
        </g>
      </g>
    </g>
  </g>
</svg>
