<?xml version="1.0" encoding="UTF-8" standalone="no"?>
<!-- Created with Inkscape (http://www.inkscape.org/) -->

<svg
   width="20mm"
   height="20mm"
   viewBox="0 0 20 20"
   version="1.1"
   id="svg8"
   inkscape:version="1.3 (0e150ed6c4, 2023-07-21)"
   sodipodi:docname="ronchigram.svg"
   xml:space="preserve"
   xmlns:inkscape="http://www.inkscape.org/namespaces/inkscape"
   xmlns:sodipodi="http://sodipodi.sourceforge.net/DTD/sodipodi-0.dtd"
   xmlns="http://www.w3.org/2000/svg"
   xmlns:svg="http://www.w3.org/2000/svg"
   xmlns:rdf="http://www.w3.org/1999/02/22-rdf-syntax-ns#"
   xmlns:cc="http://creativecommons.org/ns#"
   xmlns:dc="http://purl.org/dc/elements/1.1/"><defs
     id="defs2"><pattern
       id="EMFhbasepattern"
       patternUnits="userSpaceOnUse"
       width="6"
       height="6"
       x="0"
       y="0" /></defs><sodipodi:namedview
     id="base"
     pagecolor="#ffffff"
     bordercolor="#666666"
     borderopacity="1.0"
     inkscape:pageopacity="0.0"
     inkscape:pageshadow="2"
     inkscape:zoom="7.9195959"
     inkscape:cx="53.033009"
     inkscape:cy="53.096143"
     inkscape:document-units="mm"
     inkscape:current-layer="g3"
     showgrid="false"
     inkscape:window-width="1842"
     inkscape:window-height="1057"
     inkscape:window-x="70"
     inkscape:window-y="-8"
     inkscape:window-maximized="1"
     showguides="false"
     inkscape:showpageshadow="2"
     inkscape:pagecheckerboard="0"
     inkscape:deskcolor="#d1d1d1" /><metadata
     id="metadata5"><rdf:RDF><cc:Work
         rdf:about=""><dc:format>image/svg+xml</dc:format><dc:type
           rdf:resource="http://purl.org/dc/dcmitype/StillImage" /></cc:Work></rdf:RDF></metadata><g
     inkscape:label="Layer 1"
     inkscape:groupmode="layer"
     id="layer1"
     transform="translate(-67.279762,-65.962051)"><g
       id="g1"
       transform="matrix(0.4032693,0,0,0.4032693,48.956922,39.022088)"><g
         id="g3"
         transform="matrix(1.5674537,0,0,1.5674537,-53.061794,-37.701982)"><path
           style="fill:#dcdcdc;fill-opacity:1;stroke-width:0.13575"
           d="m 75.353464,95.548955 c -0.940104,-0.30563 -1.154615,-1.24043 -0.315426,-1.37462 0.307226,-0.0491 1.020878,0.19735 1.258004,0.43446 0.54828,0.54828 -0.114504,1.20936 -0.942578,0.94016 z m 13.931186,-1.15623 c -0.18159,-0.0458 -0.301818,-0.15059 -0.541996,-0.4725 -0.398624,-0.534276 -0.246363,-1.037575 0.360313,-1.191036 0.460004,-0.116362 0.805709,-0.238276 0.947613,-0.33418 0.822673,-0.555983 1.527199,-0.04271 1.217462,0.886936 -0.235485,0.70678 -1.275521,1.28924 -1.983392,1.11078 z M 66.590914,92.800949 c -0.349472,-0.35143 -0.658346,-1.379351 -0.517007,-1.72058 0.268344,-0.647828 1.827737,-0.522341 2.188939,0.17615 0.456852,0.883449 -0.995298,2.224856 -1.671932,1.54443 z M 78.090876,90.343878 C 75.202328,89.83729 74.048272,89.301591 72.351003,87.679489 71.9853,87.329985 71.678061,87.100419 71.277442,86.877342 70.968767,86.705456 70.598427,86.461549 70.454464,86.335321 70.310508,86.2091 70.08372,86.0213 69.950487,85.917999 c -0.652906,-0.506234 -0.760616,-1.506257 -0.251522,-2.33522 0.589109,-0.959263 2.063357,-0.501193 2.604639,0.809301 0.203601,0.492956 0.260144,0.570448 0.928268,1.272245 1.33912,1.406604 1.83404,1.681593 2.983644,1.657753 0.703743,-0.01461 0.763289,-0.0068 1.250327,0.164452 1.130912,0.397573 1.785491,0.397784 2.597795,6.21e-4 0.290051,-0.141731 0.699019,-0.337829 0.908811,-0.435772 0.583415,-0.272366 1.072455,-0.844529 1.265979,-1.481162 0.02375,-0.07813 0.142228,-0.312715 0.263278,-0.521308 0.121055,-0.208587 0.220099,-0.404536 0.220099,-0.435443 0,-0.24397 0.892282,-1.202455 1.119412,-1.202455 0.411405,0 0.501528,0.208083 0.357547,0.825569 -0.09646,0.413693 -0.108729,0.600212 -0.07779,1.182309 0.05744,1.080989 -0.204571,2.274201 -0.664407,3.025442 -0.05893,0.09632 -0.148985,0.339222 -0.20007,0.539808 -0.169549,0.665731 -0.541213,1.062011 -1.220762,1.301636 -0.60074,0.211831 -2.876588,0.245219 -3.944859,0.05787 z m 8.295895,-4.901479 c -0.591801,-0.20022 -0.888577,-1.39797 -0.541051,-2.183612 0.111775,-0.252685 0.210191,-0.718432 0.376003,-1.779461 0.05128,-0.328144 0.166932,-0.941478 0.256993,-1.362959 0.245878,-1.150699 0.192567,-1.350539 -0.506862,-1.900044 -0.456957,-0.359002 -0.553993,-0.563989 -0.526492,-1.112233 0.03637,-0.725077 0.02232,-0.895011 -0.09263,-1.118834 -0.121223,-0.236081 -0.659427,-0.674769 -1.281967,-1.044929 -0.448025,-0.266391 -0.583328,-0.436562 -0.52689,-0.662678 0.09863,-0.395212 0.360947,-0.447043 0.976923,-0.193034 1.085005,0.447422 1.666033,1.028574 2.30872,2.309211 0.188937,0.37647 0.397853,0.704123 0.525343,0.82391 0.35953,0.337792 0.651315,0.834626 0.651315,1.109006 0,0.131493 0.06392,0.552937 0.142054,0.936555 0.199256,0.978365 0.201786,2.243828 0.0064,3.216791 -0.0746,0.371503 -0.15353,0.825582 -0.175417,1.009068 -0.148177,1.242432 -0.914655,2.18256 -1.59247,1.953243 z m -20.011835,-0.09617 c -0.276163,-0.125376 -0.373274,-0.266373 -0.838487,-1.217362 -0.48388,-0.98915 -0.470695,-1.510235 0.04414,-1.743991 0.481188,-0.218477 0.611102,-0.15494 1.541204,0.753722 0.657127,0.641978 0.657127,0.641978 0.65658,1.140435 -0.0012,0.881305 -0.678343,1.396397 -1.403433,1.067196 z M 79.07555,83.127962 c -1.045301,-0.1762 -1.358738,-0.311224 -2.143572,-0.923401 -0.678623,-0.529334 -0.896118,-1.017671 -0.840961,-1.88819 0.07318,-1.155081 0.510218,-1.668892 1.528063,-1.796518 0.254904,-0.03195 0.605974,-0.111284 0.780147,-0.176269 0.904665,-0.337524 1.087747,-0.356645 1.903053,-0.198759 0.408813,0.07916 0.871147,0.160765 1.027405,0.181329 1.153266,0.151782 1.507084,1.030774 0.80408,1.997577 -0.207486,0.285351 -0.364994,0.578001 -0.438458,0.81466 -0.639864,2.061362 -0.922133,2.275724 -2.619757,1.989571 z m -7.813214,-3.148786 c -0.910595,-0.293103 -1.065119,-1.050865 -0.394515,-1.934619 0.200897,-0.264744 0.631491,-1.001322 0.715877,-1.224579 0.193773,-0.512624 0.519636,-0.934024 1.010603,-1.306882 0.267486,-0.203141 0.672401,-0.538117 0.899804,-0.744397 0.612401,-0.555504 1.220041,-0.82023 3.176237,-1.383747 0.250018,-0.07202 0.633561,-0.183361 0.852318,-0.247426 1.005026,-0.294309 1.395532,-0.32299 1.979724,-0.145417 0.147897,0.04494 0.266628,0.362788 0.226925,0.60746 -0.07152,0.440714 -0.925652,1.090208 -1.633286,1.241965 -0.385477,0.08267 -1.840188,0.666918 -2.456033,0.986403 -1.201877,0.62351 -2.012354,1.495179 -2.730618,2.93678 -0.61748,1.239324 -0.906866,1.45271 -1.647036,1.214459 z M 66.05887,75.958404 c -0.647106,-0.23633 0.185456,-2.170787 0.892562,-2.073863 0.519699,0.07123 0.702146,0.253027 0.75353,0.75085 0.03916,0.379223 -0.0447,0.595449 -0.28468,0.734004 -0.100244,0.05787 -0.291127,0.204092 -0.424186,0.324911 -0.357882,0.324974 -0.590812,0.390612 -0.937226,0.264098 z m 24.558,-3.27873 c -1.004648,-0.647561 -0.73572,-1.771965 0.346904,-1.45046 0.834061,0.247694 1.014445,1.182029 0.299152,1.549516 -0.198908,0.102195 -0.375935,0.07505 -0.646056,-0.09906 z M 72.297201,70.220847 c -0.340993,-0.40525 -0.01467,-0.820863 0.821815,-1.046576 0.171885,-0.04637 0.453153,-0.125543 0.625039,-0.17592 0.768703,-0.22529 1.25594,-0.15371 1.332704,0.195794 0.08814,0.401303 -0.06604,0.522787 -1.093913,0.861953 -1.194424,0.394123 -1.469978,0.421052 -1.685645,0.164749 z"
           id="path3" /></g></g></g></svg>
